<svg xmlns="http://www.w3.org/2000/svg" xmlns:xlink="http://www.w3.org/1999/xlink" width="76" zoomAndPan="magnify" viewBox="0 0 56.879997 56.999997" height="76" preserveAspectRatio="xMidYMid meet" version="1.0"><defs><filter x="0%" y="0%" width="100%" height="100%" id="952e8807c0"><feColorMatrix values="0 0 0 0 1 0 0 0 0 1 0 0 0 0 1 0 0 0 1 0" color-interpolation-filters="sRGB"/></filter><g/><clipPath id="f4b974f7f4"><path d="M 0 0.0585938 L 56.761719 0.0585938 L 56.761719 56.9375 L 0 56.9375 Z M 0 0.0585938 " clip-rule="nonzero"/></clipPath><clipPath id="ded41c7140"><path d="M 0 0.0585938 L 56.761719 0.0585938 L 56.761719 56.9375 L 0 56.9375 Z M 0 0.0585938 " clip-rule="nonzero"/></clipPath><clipPath id="1f1907c696"><path d="M 22 0.0585938 L 56.761719 0.0585938 L 56.761719 56.9375 L 22 56.9375 Z M 22 0.0585938 " clip-rule="nonzero"/></clipPath><mask id="f82871395a"><g filter="url(#952e8807c0)"><rect x="-12.513599" width="81.907196" fill="#000000" y="-12.539999" height="82.079996" fill-opacity="0.85"/></g></mask><clipPath id="afd3f661c3"><path d="M 5 11 L 34.761719 11 L 34.761719 46 L 5 46 Z M 5 11 " clip-rule="nonzero"/></clipPath><clipPath id="280dff28b3"><rect x="0" width="35" y="0" height="57"/></clipPath><clipPath id="84734dc8db"><path d="M 0 0.0585938 L 29 0.0585938 L 29 56.9375 L 0 56.9375 Z M 0 0.0585938 " clip-rule="nonzero"/></clipPath><mask id="a8c60392aa"><g filter="url(#952e8807c0)"><rect x="-12.513599" width="81.907196" fill="#000000" y="-12.539999" height="82.079996" fill-opacity="0.85"/></g></mask><clipPath id="52562abf83"><rect x="0" width="29" y="0" height="57"/></clipPath><clipPath id="3627c24a3d"><rect x="0" width="11" y="0" height="9"/></clipPath><clipPath id="1541f922fd"><path d="M 5 2 L 8.671875 2 L 8.671875 5 L 5 5 Z M 5 2 " clip-rule="nonzero"/></clipPath><clipPath id="d12467ba6b"><rect x="0" width="9" y="0" height="7"/></clipPath><clipPath id="ea2740a390"><rect x="0" width="13" y="0" height="12"/></clipPath><clipPath id="ba5359fb97"><rect x="0" width="57" y="0" height="57"/></clipPath></defs><g clip-path="url(#f4b974f7f4)"><path fill="#ffffff" d="M 0 0.0585938 L 56.878906 0.0585938 L 56.878906 56.941406 L 0 56.941406 Z M 0 0.0585938 " fill-opacity="1" fill-rule="nonzero"/><g transform="matrix(1, 0, 0, 1, 0, 0.00000000000000755)"><g clip-path="url(#ba5359fb97)"><g clip-path="url(#ded41c7140)"><path fill="#ffffff" d="M 0 0.0585938 L 57.1875 0.0585938 L 57.1875 57.25 L 0 57.25 Z M 0 0.0585938 " fill-opacity="1" fill-rule="nonzero"/></g><g clip-path="url(#1f1907c696)"><g mask="url(#f82871395a)"><g transform="matrix(1, 0, 0, 1, 22, 0.00000000000000755)"><g clip-path="url(#280dff28b3)"><g clip-path="url(#afd3f661c3)"><g fill="#ffbd59" fill-opacity="1"><g transform="translate(0.725533, 45.73576)"><g><path d="M 16.5625 -33.828125 C 22.0625 -33.828125 26.253906 -32.40625 29.140625 -29.5625 C 32.035156 -26.726562 33.484375 -22.515625 33.484375 -16.921875 C 33.484375 -11.328125 32.035156 -7.109375 29.140625 -4.265625 C 26.253906 -1.421875 22.0625 0 16.5625 0 L 4.390625 0 L 4.390625 -33.828125 Z M 16.171875 -5.625 C 19.660156 -5.625 22.269531 -6.515625 24 -8.296875 C 25.726562 -10.078125 26.59375 -12.953125 26.59375 -16.921875 C 26.59375 -20.878906 25.726562 -23.75 24 -25.53125 C 22.269531 -27.3125 19.660156 -28.203125 16.171875 -28.203125 L 11.078125 -28.203125 L 11.078125 -5.625 Z M 16.171875 -5.625 "/></g></g></g></g></g></g></g></g><g clip-path="url(#84734dc8db)"><g mask="url(#a8c60392aa)"><g transform="matrix(1, 0, 0, 1, 0, 0.00000000000000755)"><g clip-path="url(#52562abf83)"><g fill="#ffbd59" fill-opacity="1"><g transform="translate(-1.203984, 45.878076)"><g><path d="M 15 0.484375 C 12.65625 0.484375 10.566406 0.195312 8.734375 -0.375 C 6.910156 -0.957031 5.390625 -1.71875 4.171875 -2.65625 C 2.953125 -3.601562 2.015625 -4.640625 1.359375 -5.765625 L 5.046875 -10.25 L 5.625 -10.25 C 6.644531 -8.738281 7.9375 -7.535156 9.5 -6.640625 C 11.0625 -5.742188 12.894531 -5.296875 15 -5.296875 C 16.78125 -5.296875 18.125 -5.671875 19.03125 -6.421875 C 19.945312 -7.179688 20.40625 -8.226562 20.40625 -9.5625 C 20.40625 -10.363281 20.257812 -11.03125 19.96875 -11.5625 C 19.675781 -12.101562 19.191406 -12.566406 18.515625 -12.953125 C 17.835938 -13.335938 16.921875 -13.671875 15.765625 -13.953125 L 11.40625 -14.953125 C 8.363281 -15.640625 6.097656 -16.789062 4.609375 -18.40625 C 3.128906 -20.019531 2.390625 -22.113281 2.390625 -24.6875 C 2.390625 -26.601562 2.863281 -28.285156 3.8125 -29.734375 C 4.769531 -31.179688 6.160156 -32.304688 7.984375 -33.109375 C 9.816406 -33.910156 12.007812 -34.3125 14.5625 -34.3125 C 17.164062 -34.3125 19.394531 -33.96875 21.25 -33.28125 C 23.113281 -32.59375 24.6875 -31.539062 25.96875 -30.125 L 22.65625 -25.59375 L 22.078125 -25.59375 C 21.117188 -26.59375 20.019531 -27.34375 18.78125 -27.84375 C 17.550781 -28.34375 16.144531 -28.59375 14.5625 -28.59375 C 12.71875 -28.59375 11.316406 -28.269531 10.359375 -27.625 C 9.410156 -26.976562 8.9375 -26.082031 8.9375 -24.9375 C 8.9375 -23.875 9.269531 -23.023438 9.9375 -22.390625 C 10.601562 -21.765625 11.765625 -21.273438 13.421875 -20.921875 L 17.859375 -20 C 21.148438 -19.300781 23.535156 -18.117188 25.015625 -16.453125 C 26.492188 -14.796875 27.234375 -12.632812 27.234375 -9.96875 C 27.234375 -7.851562 26.773438 -6.015625 25.859375 -4.453125 C 24.953125 -2.890625 23.582031 -1.675781 21.75 -0.8125 C 19.914062 0.0507812 17.664062 0.484375 15 0.484375 Z M 15 0.484375 "/></g></g></g></g></g></g></g><g transform="matrix(1, 0, 0, 1, 5, 35)"><g clip-path="url(#3627c24a3d)"><g fill="#005596" fill-opacity="1"><g transform="translate(1.364184, 4.240351)"><g><path d="M 2.0625 1.34375 L 1.625 1.0625 L 1.796875 0.453125 L 0.953125 -0.09375 L 0.46875 0.3125 L 0.03125 0.015625 L 2.171875 -1.65625 L 2.734375 -1.296875 Z M 2.125 -1.046875 L 1.296875 -0.359375 L 1.890625 0.03125 L 2.171875 -1.03125 Z M 2.125 -1.046875 "/></g></g></g><g fill="#005596" fill-opacity="1"><g transform="translate(3.796784, 5.827368)"><g><path d="M 0.765625 0.203125 L 0.3125 0.078125 L 0.96875 -2.40625 L 1.625 -2.234375 L 1.765625 -0.25 L 1.796875 -0.234375 L 2.921875 -1.875 L 3.546875 -1.71875 L 2.890625 0.765625 L 2.421875 0.640625 L 2.859375 -1 L 2.828125 -1 L 1.796875 0.484375 L 1.390625 0.375 L 1.25 -1.421875 L 1.203125 -1.4375 Z M 0.765625 0.203125 "/></g></g></g><g fill="#005596" fill-opacity="1"><g transform="translate(7.318765, 6.592967)"><g><path d="M 0.84375 0.015625 L 0.328125 0 L 0.359375 -2.578125 L 0.875 -2.5625 Z M 0.84375 0.015625 "/></g></g></g></g></g><g transform="matrix(1, 0, 0, 1, 33, 36)"><g clip-path="url(#d12467ba6b)"><g fill="#005596" fill-opacity="1"><g transform="translate(1.150466, 4.960804)"><g><path d="M 0.84375 -1.125 L 0.84375 -0.421875 L 2.078125 -0.421875 L 2.078125 0 L 0.328125 0 L 0.328125 -2.578125 L 2.046875 -2.578125 L 2.046875 -2.15625 L 0.84375 -2.15625 L 0.84375 -1.546875 L 1.890625 -1.546875 L 1.890625 -1.125 Z M 0.84375 -1.125 "/></g></g></g><g fill="#005596" fill-opacity="1"><g transform="translate(3.367258, 4.960804)"><g><path d="M 0.328125 0 L 0.328125 -2.578125 L 1.375 -2.578125 C 1.632812 -2.578125 1.832031 -2.515625 1.96875 -2.390625 C 2.101562 -2.265625 2.171875 -2.097656 2.171875 -1.890625 C 2.171875 -1.734375 2.128906 -1.601562 2.046875 -1.5 C 1.972656 -1.394531 1.859375 -1.316406 1.703125 -1.265625 L 1.703125 -1.234375 C 1.785156 -1.203125 1.847656 -1.148438 1.890625 -1.078125 C 1.941406 -1.003906 1.992188 -0.898438 2.046875 -0.765625 L 2.296875 0 L 1.78125 0 L 1.515625 -0.765625 C 1.492188 -0.847656 1.46875 -0.910156 1.4375 -0.953125 C 1.40625 -0.992188 1.363281 -1.023438 1.3125 -1.046875 C 1.257812 -1.066406 1.195312 -1.078125 1.125 -1.078125 L 0.84375 -1.078125 L 0.84375 0 Z M 1.3125 -1.484375 C 1.550781 -1.484375 1.671875 -1.597656 1.671875 -1.828125 C 1.671875 -2.054688 1.550781 -2.171875 1.3125 -2.171875 L 0.84375 -2.171875 L 0.84375 -1.484375 Z M 1.3125 -1.484375 "/></g></g></g><g clip-path="url(#1541f922fd)"><g fill="#005596" fill-opacity="1"><g transform="translate(5.778189, 4.960804)"><g><path d="M 2.46875 0 L 1.9375 0 L 1.75 -0.59375 L 0.75 -0.59375 L 0.5625 0 L 0.03125 0 L 0.921875 -2.578125 L 1.578125 -2.578125 Z M 1.21875 -2.046875 L 0.890625 -1.015625 L 1.609375 -1.015625 L 1.265625 -2.046875 Z M 1.21875 -2.046875 "/></g></g></g></g></g></g><g transform="matrix(1, 0, 0, 1, 38, 31)"><g clip-path="url(#ea2740a390)"><g fill="#005596" fill-opacity="1"><g transform="translate(3.474305, 9.702133)"><g><path d="M 1.21875 -0.328125 C 1.007812 -0.265625 0.8125 -0.253906 0.625 -0.296875 C 0.445312 -0.335938 0.285156 -0.441406 0.140625 -0.609375 C 0.00390625 -0.785156 -0.101562 -1.015625 -0.1875 -1.296875 C -0.269531 -1.578125 -0.285156 -1.828125 -0.234375 -2.046875 C -0.191406 -2.265625 -0.101562 -2.441406 0.03125 -2.578125 C 0.175781 -2.722656 0.363281 -2.832031 0.59375 -2.90625 C 0.832031 -2.976562 1.050781 -3 1.25 -2.96875 C 1.445312 -2.9375 1.597656 -2.832031 1.703125 -2.65625 L 1.421875 -2.359375 L 1.390625 -2.34375 C 1.304688 -2.4375 1.207031 -2.492188 1.09375 -2.515625 C 0.988281 -2.535156 0.863281 -2.523438 0.71875 -2.484375 C 0.507812 -2.421875 0.367188 -2.304688 0.296875 -2.140625 C 0.234375 -1.972656 0.242188 -1.742188 0.328125 -1.453125 C 0.421875 -1.160156 0.539062 -0.957031 0.6875 -0.84375 C 0.832031 -0.738281 1.003906 -0.710938 1.203125 -0.765625 C 1.390625 -0.816406 1.507812 -0.894531 1.5625 -1 C 1.625 -1.113281 1.632812 -1.25 1.59375 -1.40625 L 1.546875 -1.515625 L 0.953125 -1.34375 L 0.84375 -1.734375 L 1.90625 -2.0625 L 2.3125 -0.703125 L 1.859375 -0.5625 L 1.765625 -0.890625 L 1.734375 -0.875 C 1.710938 -0.757812 1.660156 -0.648438 1.578125 -0.546875 C 1.492188 -0.453125 1.375 -0.378906 1.21875 -0.328125 Z M 1.21875 -0.328125 "/></g></g></g><g fill="#005596" fill-opacity="1"><g transform="translate(6.445158, 8.739955)"><g><path d="M 1.140625 -0.8125 C 0.941406 -0.675781 0.742188 -0.59375 0.546875 -0.5625 C 0.347656 -0.53125 0.148438 -0.5625 -0.046875 -0.65625 C -0.253906 -0.75 -0.445312 -0.910156 -0.625 -1.140625 C -0.800781 -1.378906 -0.90625 -1.609375 -0.9375 -1.828125 C -0.976562 -2.054688 -0.957031 -2.257812 -0.875 -2.4375 C -0.789062 -2.625 -0.648438 -2.785156 -0.453125 -2.921875 C -0.265625 -3.066406 -0.0703125 -3.15625 0.125 -3.1875 C 0.320312 -3.226562 0.519531 -3.195312 0.71875 -3.09375 C 0.925781 -3 1.117188 -2.832031 1.296875 -2.59375 C 1.472656 -2.363281 1.578125 -2.140625 1.609375 -1.921875 C 1.648438 -1.703125 1.628906 -1.5 1.546875 -1.3125 C 1.460938 -1.125 1.328125 -0.957031 1.140625 -0.8125 Z M 0.875 -1.171875 C 1.039062 -1.304688 1.128906 -1.460938 1.140625 -1.640625 C 1.148438 -1.828125 1.0625 -2.039062 0.875 -2.28125 C 0.6875 -2.53125 0.503906 -2.675781 0.328125 -2.71875 C 0.148438 -2.757812 -0.0195312 -2.710938 -0.1875 -2.578125 C -0.363281 -2.453125 -0.457031 -2.296875 -0.46875 -2.109375 C -0.476562 -1.921875 -0.390625 -1.703125 -0.203125 -1.453125 C -0.015625 -1.210938 0.164062 -1.070312 0.34375 -1.03125 C 0.519531 -1 0.695312 -1.046875 0.875 -1.171875 Z M 0.875 -1.171875 "/></g></g></g><g fill="#005596" fill-opacity="1"><g transform="translate(8.985797, 6.707644)"><g><path d="M 0.4375 -0.703125 L 0.171875 -0.28125 L -2.015625 -1.640625 L -1.703125 -2.140625 L 0.25 -2.140625 L 0.265625 -2.1875 L -1.140625 -3.0625 L -0.875 -3.46875 L 1.3125 -2.109375 L 1.03125 -1.671875 L -1.046875 -1.671875 L -1.0625 -1.625 Z M 0.4375 -0.703125 "/></g></g></g></g></g></g></g></g></svg>