<svg xmlns="http://www.w3.org/2000/svg" xmlns:xlink="http://www.w3.org/1999/xlink" width="76" zoomAndPan="magnify" viewBox="0 0 56.879997 56.999997" height="76" preserveAspectRatio="xMidYMid meet" version="1.0"><defs><filter x="0%" y="0%" width="100%" height="100%" id="1e60b66479"><feColorMatrix values="0 0 0 0 1 0 0 0 0 1 0 0 0 0 1 0 0 0 1 0" color-interpolation-filters="sRGB"/></filter><g/><clipPath id="37339ee508"><path d="M 0 0.0585938 L 56.761719 0.0585938 L 56.761719 56.9375 L 0 56.9375 Z M 0 0.0585938 " clip-rule="nonzero"/></clipPath><clipPath id="3bbaf0b86a"><path d="M 0 0.0585938 L 56.761719 0.0585938 L 56.761719 56.9375 L 0 56.9375 Z M 0 0.0585938 " clip-rule="nonzero"/></clipPath><clipPath id="e3b58dcbca"><path d="M 22 0.0585938 L 56.761719 0.0585938 L 56.761719 56.9375 L 22 56.9375 Z M 22 0.0585938 " clip-rule="nonzero"/></clipPath><mask id="85b8a101d3"><g filter="url(#1e60b66479)"><rect x="-12.513599" width="81.907196" fill="#000000" y="-12.539999" height="82.079996" fill-opacity="0.85"/></g></mask><clipPath id="c06bbc5456"><path d="M 5 11 L 34.761719 11 L 34.761719 46 L 5 46 Z M 5 11 " clip-rule="nonzero"/></clipPath><clipPath id="5776d6e45f"><rect x="0" width="35" y="0" height="57"/></clipPath><clipPath id="026e1cda12"><path d="M 0 0.0585938 L 29 0.0585938 L 29 56.9375 L 0 56.9375 Z M 0 0.0585938 " clip-rule="nonzero"/></clipPath><mask id="2ed21eeb77"><g filter="url(#1e60b66479)"><rect x="-12.513599" width="81.907196" fill="#000000" y="-12.539999" height="82.079996" fill-opacity="0.85"/></g></mask><clipPath id="789523c1bb"><rect x="0" width="29" y="0" height="57"/></clipPath><clipPath id="bddb8df0b0"><rect x="0" width="57" y="0" height="57"/></clipPath></defs><g clip-path="url(#37339ee508)"><path fill="#ffffff" d="M 0 0.0585938 L 56.878906 0.0585938 L 56.878906 56.941406 L 0 56.941406 Z M 0 0.0585938 " fill-opacity="1" fill-rule="nonzero"/><g transform="matrix(1, 0, 0, 1, 0, 0.00000000000000755)"><g clip-path="url(#bddb8df0b0)"><g clip-path="url(#3bbaf0b86a)"><path fill="#ffffff" d="M 0 0.0585938 L 57.1875 0.0585938 L 57.1875 57.25 L 0 57.25 Z M 0 0.0585938 " fill-opacity="1" fill-rule="nonzero"/></g><g clip-path="url(#e3b58dcbca)"><g mask="url(#85b8a101d3)"><g transform="matrix(1, 0, 0, 1, 22, 0.00000000000000755)"><g clip-path="url(#5776d6e45f)"><g clip-path="url(#c06bbc5456)"><g fill="#ffbd59" fill-opacity="1"><g transform="translate(0.725533, 45.73576)"><g><path d="M 16.5625 -33.828125 C 22.0625 -33.828125 26.253906 -32.40625 29.140625 -29.5625 C 32.035156 -26.726562 33.484375 -22.515625 33.484375 -16.921875 C 33.484375 -11.328125 32.035156 -7.109375 29.140625 -4.265625 C 26.253906 -1.421875 22.0625 0 16.5625 0 L 4.390625 0 L 4.390625 -33.828125 Z M 16.171875 -5.625 C 19.660156 -5.625 22.269531 -6.515625 24 -8.296875 C 25.726562 -10.078125 26.59375 -12.953125 26.59375 -16.921875 C 26.59375 -20.878906 25.726562 -23.75 24 -25.53125 C 22.269531 -27.3125 19.660156 -28.203125 16.171875 -28.203125 L 11.078125 -28.203125 L 11.078125 -5.625 Z M 16.171875 -5.625 "/></g></g></g></g></g></g></g></g><g clip-path="url(#026e1cda12)"><g mask="url(#2ed21eeb77)"><g transform="matrix(1, 0, 0, 1, 0, 0.00000000000000755)"><g clip-path="url(#789523c1bb)"><g fill="#ffbd59" fill-opacity="1"><g transform="translate(-1.203984, 45.878076)"><g><path d="M 15 0.484375 C 12.65625 0.484375 10.566406 0.195312 8.734375 -0.375 C 6.910156 -0.957031 5.390625 -1.71875 4.171875 -2.65625 C 2.953125 -3.601562 2.015625 -4.640625 1.359375 -5.765625 L 5.046875 -10.25 L 5.625 -10.25 C 6.644531 -8.738281 7.9375 -7.535156 9.5 -6.640625 C 11.0625 -5.742188 12.894531 -5.296875 15 -5.296875 C 16.78125 -5.296875 18.125 -5.671875 19.03125 -6.421875 C 19.945312 -7.179688 20.40625 -8.226562 20.40625 -9.5625 C 20.40625 -10.363281 20.257812 -11.03125 19.96875 -11.5625 C 19.675781 -12.101562 19.191406 -12.566406 18.515625 -12.953125 C 17.835938 -13.335938 16.921875 -13.671875 15.765625 -13.953125 L 11.40625 -14.953125 C 8.363281 -15.640625 6.097656 -16.789062 4.609375 -18.40625 C 3.128906 -20.019531 2.390625 -22.113281 2.390625 -24.6875 C 2.390625 -26.601562 2.863281 -28.285156 3.8125 -29.734375 C 4.769531 -31.179688 6.160156 -32.304688 7.984375 -33.109375 C 9.816406 -33.910156 12.007812 -34.3125 14.5625 -34.3125 C 17.164062 -34.3125 19.394531 -33.96875 21.25 -33.28125 C 23.113281 -32.59375 24.6875 -31.539062 25.96875 -30.125 L 22.65625 -25.59375 L 22.078125 -25.59375 C 21.117188 -26.59375 20.019531 -27.34375 18.78125 -27.84375 C 17.550781 -28.34375 16.144531 -28.59375 14.5625 -28.59375 C 12.71875 -28.59375 11.316406 -28.269531 10.359375 -27.625 C 9.410156 -26.976562 8.9375 -26.082031 8.9375 -24.9375 C 8.9375 -23.875 9.269531 -23.023438 9.9375 -22.390625 C 10.601562 -21.765625 11.765625 -21.273438 13.421875 -20.921875 L 17.859375 -20 C 21.148438 -19.300781 23.535156 -18.117188 25.015625 -16.453125 C 26.492188 -14.796875 27.234375 -12.632812 27.234375 -9.96875 C 27.234375 -7.851562 26.773438 -6.015625 25.859375 -4.453125 C 24.953125 -2.890625 23.582031 -1.675781 21.75 -0.8125 C 19.914062 0.0507812 17.664062 0.484375 15 0.484375 Z M 15 0.484375 "/></g></g></g></g></g></g></g></g></g></g></svg>